<?xml version="1.0" encoding="utf-8"?>
<!-- Generator: Adobe Illustrator 26.5.0, SVG Export Plug-In . SVG Version: 6.00 Build 0)  -->
<svg version="1.1" id="Camada_1" xmlns="http://www.w3.org/2000/svg" xmlns:xlink="http://www.w3.org/1999/xlink" x="0px" y="0px"
	 viewBox="0 0 24 24" style="enable-background:new 0 0 24 24;" xml:space="preserve">
<style type="text/css">
	.st0{fill:#FAFAFA;}
</style>
<path class="st0" d="M20,0H4C1.8,0,0,1.8,0,4v16c0,2.2,1.8,4,4,4h16c2.2,0,4-1.8,4-4V4C24,1.8,22.2,0,20,0z M7.5,18
	C6.7,18,6,17.3,6,16.5C6,15.7,6.7,15,7.5,15S9,15.7,9,16.5C9,17.3,8.3,18,7.5,18z M7.5,9C6.7,9,6,8.3,6,7.5S6.7,6,7.5,6S9,6.7,9,7.5
	S8.3,9,7.5,9z M12,13.5c-0.8,0-1.5-0.7-1.5-1.5s0.7-1.5,1.5-1.5s1.5,0.7,1.5,1.5S12.8,13.5,12,13.5z M16.5,18
	c-0.8,0-1.5-0.7-1.5-1.5c0-0.8,0.7-1.5,1.5-1.5c0.8,0,1.5,0.7,1.5,1.5C18,17.3,17.3,18,16.5,18z M16.5,9C15.7,9,15,8.3,15,7.5
	S15.7,6,16.5,6C17.3,6,18,6.7,18,7.5S17.3,9,16.5,9z"/>
</svg>
